<svg width="300" height="300" xmlns="http://www.w3.org/2000/svg">
  <!-- Placeholder TNG QR Code - Replace with actual QR code image -->
  <rect width="300" height="300" fill="#f3f4f6"/>
  <rect x="20" y="20" width="260" height="260" fill="white" stroke="#d1d5db" stroke-width="2"/>
  
  <!-- QR Code Pattern Placeholder -->
  <g fill="#1f2937">
    <!-- Top-left corner -->
    <rect x="40" y="40" width="60" height="60"/>
    <rect x="50" y="50" width="40" height="40" fill="white"/>
    <rect x="60" y="60" width="20" height="20" fill="#1f2937"/>
    
    <!-- Top-right corner -->
    <rect x="200" y="40" width="60" height="60"/>
    <rect x="210" y="50" width="40" height="40" fill="white"/>
    <rect x="220" y="60" width="20" height="20" fill="#1f2937"/>
    
    <!-- Bottom-left corner -->
    <rect x="40" y="200" width="60" height="60"/>
    <rect x="50" y="210" width="40" height="40" fill="white"/>
    <rect x="60" y="220" width="20" height="20" fill="#1f2937"/>
    
    <!-- Center pattern (simplified) -->
    <rect x="130" y="130" width="10" height="10"/>
    <rect x="150" y="130" width="10" height="10"/>
    <rect x="130" y="150" width="10" height="10"/>
    <rect x="150" y="150" width="10" height="10"/>
    <rect x="140" y="140" width="10" height="10"/>
  </g>
  
  <!-- TNG Logo Placeholder -->
  <circle cx="150" cy="150" r="25" fill="#1a56db" opacity="0.9"/>
  <text x="150" y="158" font-family="Arial, sans-serif" font-size="18" font-weight="bold" fill="white" text-anchor="middle">TNG</text>
  
  <!-- Instructions -->
  <text x="150" y="290" font-family="Arial, sans-serif" font-size="12" fill="#6b7280" text-anchor="middle">
    Replace with actual TNG QR code
  </text>
</svg>
